<?xml version="1.0" encoding="utf-8"?>
<!-- Generator: Adobe Illustrator 28.2.0, SVG Export Plug-In . SVG Version: 6.00 Build 0)  -->
<svg version="1.1" id="Layer_1" xmlns="http://www.w3.org/2000/svg" xmlns:xlink="http://www.w3.org/1999/xlink" x="0px" y="0px"
	 viewBox="0 0 323.2 54.5" style="enable-background:new 0 0 323.2 54.5;" xml:space="preserve">
<style type="text/css">
	.st0{fill:#201E1B;}
	.st1{fill:#21201D;}
	.st2{fill:#262522;}
	.st3{fill:#1C1B19;}
	.st4{fill:#191816;}
</style>
<path class="st0" d="M21.66,0.13c5.8-0.19,11.15,1,16.16,3.83c1.54,0.87,1.7,1.67,0.93,3.17c-1.63,3.16-1.54,3.14-4.68,1.69
	c-6.79-3.13-13.73-4.35-20.93-1.39c-2.64,1.08-4.55,2.88-4.96,5.85c-0.46,3.38,0.86,5.71,4.2,7.31c3.59,1.72,7.47,2.52,11.32,3.42
	c3.71,0.87,7.42,1.7,10.87,3.42c4.46,2.22,6.97,5.79,7.14,10.72c0.17,5.01-1.81,9.12-6.21,11.8c-5.65,3.45-11.93,3.81-18.28,3.3
	c-5.43-0.43-10.54-2.03-15.11-5.09c-0.89-0.6-2.39-1.18-2.08-2.38c0.41-1.6,1.4-3.07,2.26-4.52c0.3-0.51,0.74,0.02,1.04,0.26
	c5.99,4.86,12.95,6.42,20.48,5.88c3.13-0.22,6.17-0.94,8.6-3.14c3.43-3.1,3.13-7.93-0.67-10.57c-3.65-2.52-7.96-3.15-12.15-4.14
	c-3.99-0.94-7.92-1.97-11.65-3.78C-1.36,21.26-0.37,9.43,5.95,4.52C10.6,0.9,16.02-0.09,21.66,0.13z"/>
<path class="st0" d="M276.06,52.7c4.11-5.59,7.88-10.71,11.65-15.84c2.14-2.91,4.19-5.88,6.46-8.68c1.09-1.35,1.09-2.25,0.07-3.62
	c-5.2-6.98-10.31-14.03-15.44-21.06c-0.61-0.84-1.21-1.69-2.07-2.89c2.59,0,4.82,0.02,7.04-0.01c1.04-0.01,1.45,0.79,1.93,1.45
	c4.42,6.06,8.82,12.13,13.22,18.2c0.25,0.34,0.52,0.66,0.85,1.08c3.89-5.3,8.02-10.36,11.46-15.84c2.5-3.98,5.48-5.73,10.05-4.89
	c0.33,0.06,0.68,0.01,1.41,0.01c-1.43,2.01-2.67,3.78-3.94,5.52c-4.52,6.16-9.01,12.34-13.6,18.45c-0.98,1.31-0.96,2.15,0.03,3.46
	c5.61,7.46,11.12,15.01,16.65,22.53c0.41,0.56,0.77,1.17,1.37,2.11c-2.61,0-4.92-0.01-7.23,0c-0.97,0.01-1.27-0.76-1.72-1.38
	c-4.52-6.17-9.05-12.32-13.54-18.5c-0.8-1.1-1.17-1.37-2.13-0.01c-4.42,6.23-9.02,12.34-13.48,18.55c-0.75,1.04-1.51,1.47-2.8,1.39
	C280.41,52.61,278.51,52.7,276.06,52.7z"/>
<path class="st1" d="M79.96,53.4c-12.82-0.01-23.5-8.28-26.06-21.42C50.76,15.85,61.79,1.3,78.1,0.11
	c7.32-0.53,14.08,0.73,20.01,5.28c3.2,2.46,3.07,2.38,0.45,5.36c-1.41,1.59-2.17,1.77-3.88,0.23c-6.1-5.49-15.74-6.51-23.25-2.75
	C64.11,11.9,59.88,19.5,60.46,27.99c0.58,8.41,4.7,14.52,12.47,17.68c8.05,3.28,15.71,2.21,22.31-3.73
	c1.24-1.11,1.82-0.95,2.87,0.09c3.33,3.31,3.37,3.28-0.52,6.21C92.66,51.95,87.04,53.52,79.96,53.4z"/>
<path class="st0" d="M135.92,7.49c-3.4,7.53-6.59,14.65-9.82,21.75c-3.33,7.32-6.72,14.62-10.04,21.94
	c-0.44,0.96-0.97,1.44-2.06,1.39c-1.69-0.07-3.39-0.02-5.49-0.02c1.5-3.28,2.83-6.29,4.22-9.27c6.32-13.56,12.68-27.09,18.96-40.67
	c0.71-1.53,1.64-1.81,3.23-2.02c3.6-0.47,5.13,1.15,6.55,4.27c6.96,15.28,14.17,30.45,21.36,45.62c0.79,1.67,0.65,1.89-1.26,2.14
	c-3.79,0.5-5.55-1.01-7.05-4.45c-5.56-12.74-11.47-25.33-17.26-37.97C136.88,9.42,136.48,8.63,135.92,7.49z"/>
<path class="st2" d="M176.51,26.52c0-8.01,0.04-16.03-0.03-24.04c-0.01-1.48,0.37-1.91,1.88-1.9c5.15,0.04,5.16-0.03,5.16,5.19
	c0,12.98,0.02,25.95-0.06,38.93c-0.01,1.62,0.32,2.17,2.07,2.15c8.65-0.1,17.31-0.02,25.96-0.09c1.6-0.01,2.04,0.44,2,2.03
	c-0.09,3.88-0.01,3.88-3.86,3.88c-10.01,0-20.01,0-30.02,0.01c-3.09,0-3.09,0-3.09-3.19c0-7.66,0-15.32,0-22.97
	C176.52,26.52,176.52,26.52,176.51,26.52z"/>
<path class="st3" d="M247.12,6.74c-5.32,0-10.65-0.04-15.97,0.03c-1.38,0.02-1.98-0.18-1.95-1.79c0.08-3.95-0.01-3.95,3.91-3.95
	c10.08,0,20.16,0.04,30.24-0.04c1.69-0.01,2.18,0.45,2.14,2.13c-0.1,3.68-0.01,3.66-3.67,3.64c-4.9-0.03-9.79-0.01-14.69-0.01
	C247.12,6.75,247.12,6.75,247.12,6.74z"/>
<path class="st4" d="M247.76,53.11c-5.54,0-11.07-0.04-16.61,0.03c-1.43,0.02-1.97-0.3-1.94-1.85c0.06-3.92-0.02-3.91,3.89-3.92
	c10.29,0,20.58,0.03,30.87-0.05c1.78-0.01,2.5,0.3,2.4,2.28c-0.17,3.48-0.04,3.49-3.49,3.49c-5.04,0-10.08,0-15.12,0
	C247.76,53.1,247.76,53.1,247.76,53.11z"/>
<path class="st3" d="M245.8,23.94c4.96,0,9.91,0.05,14.87-0.03c1.38-0.02,1.81,0.38,1.8,1.78c-0.01,4.02,0.05,4.02-4.04,4.01
	c-8.85-0.02-17.7-0.08-26.55-0.01c-2.01,0.02-2.88-0.4-2.7-2.67c0.24-3.05,0.06-3.06,3.23-3.06c4.46,0,8.92,0,13.38,0
	C245.8,23.96,245.8,23.95,245.8,23.94z"/>
</svg>
